<?xml version="1.0" encoding="utf-8"?>
<!-- Generator: Adobe Illustrator 23.0.2, SVG Export Plug-In . SVG Version: 6.00 Build 0)  -->
<svg version="1.1" id="Layer_1" xmlns="http://www.w3.org/2000/svg" xmlns:xlink="http://www.w3.org/1999/xlink" x="0px" y="0px"
	 viewBox="0 0 30 30" style="enable-background:new 0 0 30 30;" xml:space="preserve">
<style type="text/css">
	.st0{fill:#FFFFFF;}
</style>
<g>
	<path class="st0" d="M3,11c0-0.1,0.1-0.2,0.1-0.3c0.2-0.4,0.6-0.7,1-0.7c0.1,0,0.1,0,0.2,0c7.2,0,14.5,0,21.7,0c0.2,0,0.3,0,0.5,0
		c0.8,0.2,1.2,1.2,0.7,1.8C27.2,12,27.1,12,27,12.1c-3.6,3.6-7.2,7.2-10.8,10.8c-0.6,0.6-1.3,0.6-1.9,0c-3.6-3.6-7.1-7.1-10.7-10.7
		C3.3,12,3.1,11.7,3,11.4C3,11.3,3,11.1,3,11z"/>
</g>
</svg>
