<?xml version="1.0" encoding="utf-8"?>
<!-- Generator: Adobe Illustrator 23.0.2, SVG Export Plug-In . SVG Version: 6.00 Build 0)  -->
<svg version="1.1" id="Layer_1" xmlns="http://www.w3.org/2000/svg" xmlns:xlink="http://www.w3.org/1999/xlink" x="0px" y="0px"
	 viewBox="0 0 30 30" style="enable-background:new 0 0 30 30;" xml:space="preserve">
<style type="text/css">
	.st0{fill:#FFFFFF;}
</style>
<g>
	<path class="st0" d="M29.5,13.9c-2,0-4.1,0-6.1,0c-0.1-2-0.3-4-0.8-6c0.4,0,0.7,0,1,0c1.3,0,2.6,0,3.8,0c0.2,0,0.3,0.1,0.4,0.3
		c0.8,1.7,1.4,3.4,1.6,5.2c0,0,0,0.1,0,0.1C29.5,13.6,29.5,13.8,29.5,13.9z"/>
	<path class="st0" d="M29.5,16c-0.1,0.5-0.2,1.1-0.3,1.6c-0.3,1.3-0.8,2.6-1.4,3.8c0,0.1-0.2,0.2-0.3,0.2c-1.6,0-3.2,0-4.8,0
		c0,0-0.1,0-0.1,0c0.5-2,0.7-4,0.8-6c2.1,0,4.1,0,6.1,0C29.5,15.7,29.5,15.9,29.5,16z"/>
	<path class="st0" d="M0,15.6c2,0,4.1,0,6.1,0c0.1,2,0.3,4,0.8,6c-0.1,0-0.2,0-0.3,0c-1.5,0-3,0-4.5,0c-0.2,0-0.3-0.1-0.4-0.2
		C0.8,19.8,0.2,18,0,16.2c0-0.1,0-0.1,0-0.2C0,15.9,0,15.7,0,15.6z"/>
	<path class="st0" d="M0,13.5c0.1-0.5,0.2-1.1,0.3-1.6C0.6,10.5,1.1,9.2,1.7,8c0-0.1,0.2-0.2,0.3-0.2c1.6,0,3.2,0,4.8,0
		c0,0,0.1,0,0.1,0c-0.5,2-0.7,4-0.8,6c-2.1,0-4.1,0-6.1,0C0,13.8,0,13.6,0,13.5z"/>
	<path class="st0" d="M15.7,0c2,0.9,3,2.6,3.9,4.5c0.2,0.5,0.4,1,0.7,1.6c-1.6,0-3.1,0-4.7,0c0-2,0-4.1,0-6.1C15.7,0,15.7,0,15.7,0z
		"/>
	<path class="st0" d="M15.6,29.5c0-2,0-4,0-6.1c1.6,0,3.1,0,4.7,0c-0.4,1.2-0.9,2.3-1.5,3.3c-0.4,0.7-0.9,1.4-1.6,1.9
		c-0.4,0.3-0.9,0.6-1.4,0.9C15.7,29.5,15.7,29.5,15.6,29.5z"/>
	<path class="st0" d="M13.9,0c0,2,0,4,0,6.1c-1.6,0-3.1,0-4.7,0c0.4-1.1,0.9-2.2,1.5-3.3c0.5-0.7,1-1.4,1.7-2
		c0.4-0.3,0.9-0.6,1.4-0.9C13.8,0,13.8,0,13.9,0z"/>
	<path class="st0" d="M13.8,29.5c-0.8-0.4-1.5-0.9-2.1-1.6c-1.1-1.3-1.8-2.9-2.4-4.5c1.6,0,3.1,0,4.7,0c0,2,0,4.1,0,6.1
		C13.8,29.5,13.8,29.5,13.8,29.5z"/>
	<path class="st0" d="M7.8,13.9c0.1-1.1,0.2-2.3,0.3-3.4C8.3,9.7,8.5,8.9,8.6,8c0-0.1,0.1-0.2,0.2-0.2c1.7,0,3.3,0,5,0c0,2,0,4,0,6
		C11.9,13.9,9.9,13.9,7.8,13.9z"/>
	<path class="st0" d="M15.6,7.8c1.3,0,2.6,0,3.8,0c0.4,0,0.7,0,1.1,0c0.2,0,0.3,0,0.3,0.2c0.4,1.7,0.7,3.4,0.7,5.2
		c0,0.2,0,0.4,0,0.6c-2,0-4,0-6,0C15.6,11.9,15.6,9.9,15.6,7.8z"/>
	<path class="st0" d="M13.9,15.6c0,2,0,4,0,6c-0.1,0-0.2,0-0.3,0c-1.5,0-3.1,0-4.6,0c-0.2,0-0.3-0.1-0.4-0.3
		c-0.4-1.9-0.7-3.7-0.7-5.6c0,0,0-0.1,0-0.1C9.9,15.6,11.9,15.6,13.9,15.6z"/>
	<path class="st0" d="M15.6,21.6c0-2,0-4,0-6c2,0,4,0,6,0c0,0.6,0,1.2-0.1,1.8c-0.2,1.3-0.4,2.7-0.7,4c0,0.2-0.1,0.2-0.2,0.2
		C19,21.7,17.3,21.7,15.6,21.6C15.7,21.7,15.7,21.7,15.6,21.6z"/>
	<path class="st0" d="M26.6,23.4c-1.9,2.5-4.2,4.4-7.2,5.4c0.7-0.9,1.3-1.9,1.7-2.9c0.3-0.8,0.6-1.5,0.9-2.3c0-0.1,0.1-0.2,0.2-0.2
		C23.7,23.4,25.1,23.4,26.6,23.4z"/>
	<path class="st0" d="M19.5,0.7c2.9,1,5.2,2.9,7.1,5.4c-1.5,0-3,0-4.4,0c-0.4-0.9-0.7-1.9-1.2-2.8C20.6,2.4,20,1.6,19.5,0.7z"/>
	<path class="st0" d="M10,0.7C9.3,1.6,8.8,2.6,8.3,3.6C8,4.4,7.7,5.1,7.4,5.9c0,0.1-0.1,0.2-0.2,0.2c-1.4,0-2.8,0-4.3,0
		C4.8,3.6,7.1,1.7,10,0.7z"/>
	<path class="st0" d="M2.9,23.4c1.5,0,2.9,0,4.3,0c0.1,0,0.2,0.1,0.2,0.2c0.5,1.1,1,2.3,1.5,3.5c0.3,0.6,0.7,1.2,1.1,1.8
		C7.1,27.8,4.8,25.9,2.9,23.4z"/>
</g>
</svg>
