<?xml version="1.0" encoding="utf-8"?>
<!-- Generator: Adobe Illustrator 23.0.2, SVG Export Plug-In . SVG Version: 6.00 Build 0)  -->
<svg version="1.1" id="Layer_1" xmlns="http://www.w3.org/2000/svg" xmlns:xlink="http://www.w3.org/1999/xlink" x="0px" y="0px"
	 viewBox="0 0 30 30" style="enable-background:new 0 0 30 30;" xml:space="preserve">
<style type="text/css">
	.st0{fill:#FFFFFF;}
</style>
<g>
	<path class="st0" d="M11.6,26c-0.7-0.2-1.1-0.8-1.5-1.3c-0.3-0.4-0.3-1,0-1.4c0.1-0.1,0.2-0.2,0.3-0.3c2.7-2.7,5.3-5.3,8-8
		c0.1-0.1,0.1-0.1,0.2-0.2c-0.1-0.1-0.2-0.2-0.2-0.2C15.7,12,13,9.3,10.3,6.6C9.9,6.1,9.7,5.5,10.1,5c0.3-0.4,0.7-0.8,1.2-1.2
		c0.4-0.3,1-0.2,1.4,0.1c0.1,0.1,0.1,0.1,0.2,0.2c3.2,3.2,6.5,6.5,9.7,9.7c0.5,0.5,0.6,1.1,0.3,1.6c-0.1,0.1-0.2,0.2-0.3,0.3
		c-3.3,3.3-6.5,6.5-9.8,9.8c-0.2,0.2-0.5,0.3-0.7,0.5C11.9,26,11.8,26,11.6,26z"/>
</g>
</svg>
